<svg id="Фон_Изображение" data-name="Фон Изображение" xmlns="http://www.w3.org/2000/svg" viewBox="0 0 90 90"><defs><style>.cls-1{fill:#fff;}.cls-2{fill:none;stroke:#fff;stroke-miterlimit:10;}</style></defs><title>Монтажная область 1</title><path class="cls-1" d="M45.31,33.09A12.47,12.47,0,1,0,57.78,45.56,12.47,12.47,0,0,0,45.31,33.09Zm0,5.53a2.11,2.11,0,1,1-2.11,2.11A2.11,2.11,0,0,1,45.31,38.62Zm2.82,12.77a.6.6,0,0,1-.6.6H43.1a.6.6,0,0,1-.6-.6V50.19a.6.6,0,0,1,.6-.6h.6V46.37h-.6a.6.6,0,0,1-.6-.6V44.56a.6.6,0,0,1,.6-.6h3.22a.6.6,0,0,1,.6.6v5h.6a.6.6,0,0,1,.6.6Z"/><circle class="cls-2" cx="45.83" cy="45.83" r="30"/></svg>