<svg xmlns="http://www.w3.org/2000/svg" viewBox="0 0 65 65"><defs><style>.a,.d{fill:none;}.a{stroke:#fff;}.b{fill:#fff;}.c{stroke:none;}</style></defs><g transform="translate(-1132 -259)"><g class="a" transform="translate(1132 259)"><circle class="c" cx="32.5" cy="32.5" r="32.5"/><circle class="d" cx="32.5" cy="32.5" r="32"/></g><g transform="translate(199 190)"><rect class="b" width="1.519" height="29.431" rx="0.76" transform="translate(954.27 91.43) rotate(-45)"/><rect class="b" width="1.519" height="29.431" rx="0.76" transform="translate(975.081 90.356) rotate(45)"/><rect class="b" width="1.646" height="6.139" rx="0.823" transform="translate(954.608 92.276) rotate(-90)"/><rect class="b" width="1.646" height="6.139" rx="0.823" transform="translate(974.235 90.694)"/><rect class="b" width="1.646" height="6.139" rx="0.823" transform="translate(975.843 110.283) rotate(90)"/><rect class="b" width="1.646" height="6.139" rx="0.823" transform="translate(956.228 111.929) rotate(180)"/><rect class="b" width="1.646" height="6.139" rx="0.823" transform="translate(954.576 90.662)"/><rect class="b" width="1.646" height="6.139" rx="0.823" transform="translate(975.849 90.662) rotate(90)"/><rect class="b" width="1.646" height="6.139" rx="0.823" transform="translate(975.874 111.897) rotate(180)"/><rect class="b" width="1.646" height="6.139" rx="0.823" transform="translate(954.615 111.96) rotate(-90)"/></g></g></svg>